<?xml version="1.0" encoding="UTF-8"?>
<svg id="Layer_1" data-name="Layer 1" xmlns="http://www.w3.org/2000/svg" xmlns:xlink="http://www.w3.org/1999/xlink" viewBox="0 0 350 107.98">
  <defs>
    <style>
      .cls-1 {
        fill: url(#linear-gradient);
      }

      .cls-1, .cls-2, .cls-3, .cls-4, .cls-5, .cls-6, .cls-7, .cls-8 {
        stroke-width: 0px;
      }

      .cls-2 {
        fill: url(#linear-gradient-6);
      }

      .cls-3 {
        fill: url(#linear-gradient-5);
      }

      .cls-4 {
        fill: #9aca3c;
      }

      .cls-5 {
        fill: url(#linear-gradient-2);
      }

      .cls-6 {
        fill: url(#linear-gradient-3);
      }

      .cls-7 {
        fill: url(#linear-gradient-4);
      }

      .cls-8 {
        fill: #b1adb0;
      }
    </style>
    <linearGradient id="linear-gradient" x1="68.47" y1="12.11" x2="16.06" y2="64.52" gradientUnits="userSpaceOnUse">
      <stop offset="0" stop-color="#fff"/>
      <stop offset=".45" stop-color="#dedcdd"/>
      <stop offset="1" stop-color="#b1adb0"/>
    </linearGradient>
    <linearGradient id="linear-gradient-2" x1="98.2" y1="7.17" x2="57.87" y2="61.91" gradientUnits="userSpaceOnUse">
      <stop offset="0" stop-color="#fff"/>
      <stop offset=".1" stop-color="#fafcf6"/>
      <stop offset=".27" stop-color="#eef6de"/>
      <stop offset=".48" stop-color="#daebb7"/>
      <stop offset=".72" stop-color="#bedd81"/>
      <stop offset=".99" stop-color="#9bca3e"/>
      <stop offset="1" stop-color="#9aca3c"/>
    </linearGradient>
    <linearGradient id="linear-gradient-3" x1="111.17" y1="16.73" x2="70.83" y2="71.46" xlink:href="#linear-gradient-2"/>
    <linearGradient id="linear-gradient-4" x1="-316.84" y1="4659.24" x2="-357.18" y2="4713.98" gradientTransform="translate(-295.23 4760.05) rotate(-180)" xlink:href="#linear-gradient-2"/>
    <linearGradient id="linear-gradient-5" x1="-303.88" y1="4668.79" x2="-344.21" y2="4723.53" gradientTransform="translate(-295.23 4760.05) rotate(-180)" xlink:href="#linear-gradient-2"/>
    <linearGradient id="linear-gradient-6" x1="-1467.37" y1="5325.22" x2="-1519.78" y2="5377.63" gradientTransform="translate(-1416.02 5421.09) rotate(-180)" xlink:href="#linear-gradient"/>
  </defs>
  <g>
    <g>
      <path class="cls-1" d="M58.01,32.81L10.16,80.66c-3.65-3.66-6.33-7.93-8-12.48L47.77,22.57l10.24,10.24Z"/>
      <g>
        <path class="cls-5" d="M53.72,103.74h0c-5.65,5.65-14.82,5.65-20.48,0l-18.92-18.92,10.24-10.24,29.16,29.16Z"/>
        <path class="cls-6" d="M119.82,51.83c0,8.88-3.38,17.75-10.16,24.53l-24.68,24.68c-7.14,7.14-18.72,7.14-25.86,0l-30.51-30.51,10.25-10.25,33.2,33.2,47.3-47.3c.31,1.87.47,3.76.47,5.65Z"/>
      </g>
      <g>
        <path class="cls-7" d="M66.1,4.24h0c5.65-5.65,14.82-5.65,20.48,0l18.92,18.92-10.24,10.24-29.16-29.16Z"/>
        <path class="cls-3" d="M0,56.15c0-8.88,3.38-17.75,10.16-24.53L34.84,6.95C41.98-.2,53.56-.2,60.7,6.95l30.51,30.51-10.25,10.25L47.77,14.5.47,61.8c-.31-1.87-.47-3.76-.47-5.65Z"/>
      </g>
    </g>
    <path class="cls-2" d="M61.8,75.17l47.85-47.85c3.65,3.66,6.33,7.93,8,12.48l-45.62,45.61-10.24-10.24Z"/>
  </g>
  <g>
    <g>
      <path class="cls-8" d="M173.75,19.11c5.19,0,9.05,1.16,11.58,3.49,2.54,2.33,3.8,5.6,3.8,9.83v17.12h-6.17v-17.12c0-2.42-.72-4.27-2.16-5.53-1.44-1.27-3.78-1.9-7-1.9h-7.15v24.55h-6.17v-24.55h-15.45c-.5,0-.75.29-.75.86v23.69h-6.11v-25.71c0-1.81.33-3.04.98-3.72.65-.67,1.75-1.01,3.29-1.01h31.3Z"/>
      <path class="cls-8" d="M217.15,19.11c1.88,0,3.5.25,4.84.75,1.34.5,2.45,1.2,3.31,2.1.86.9,1.49,1.97,1.87,3.2.38,1.23.58,2.56.58,3.98v14.29c0,1.11-.09,2.06-.26,2.82-.17.77-.49,1.39-.95,1.87-.46.48-1.1.84-1.93,1.07-.83.23-1.87.35-3.14.35h-14.24c-3.61,0-6.22-.83-7.81-2.48-1.59-1.65-2.39-3.92-2.39-6.8,0-1.38.18-2.61.55-3.69.36-1.08.95-1.99,1.76-2.74.81-.75,1.86-1.33,3.17-1.73,1.31-.4,2.9-.61,4.78-.61h14.47v-2.31c0-1.19-.36-2.19-1.07-3-.71-.81-1.91-1.21-3.6-1.21h-18.21v-5.88h18.27ZM220.09,43.6c1.11,0,1.67-.52,1.67-1.56v-5.71h-14.35c-1.61,0-2.75.32-3.4.95-.65.63-.98,1.51-.98,2.62s.33,2.01.98,2.68c.65.67,1.75,1.01,3.29,1.01h12.8Z"/>
      <path class="cls-8" d="M242.51,5.91v25.82h2.82c1.19,0,2.18-.03,2.97-.09.79-.06,1.45-.2,1.99-.43.54-.23,1-.58,1.38-1.04.38-.46.81-1.1,1.27-1.9l5.07-9.16h6.63l-5.3,9.57c-.77,1.35-1.56,2.45-2.36,3.31-.81.86-1.83,1.57-3.05,2.1,1.46.42,2.63,1.1,3.52,2.05.88.94,1.79,2.22,2.71,3.83l5.48,9.57h-6.86l-5.07-8.99c-.46-.81-.9-1.45-1.33-1.93-.42-.48-.93-.84-1.53-1.1-.6-.25-1.33-.42-2.19-.52-.86-.1-1.97-.14-3.31-.14h-2.82v12.68h-6.11V5.91h6.11Z"/>
      <path class="cls-8" d="M289.2,19.11c3.61,0,6.22.82,7.84,2.45,1.61,1.63,2.42,3.93,2.42,6.89,0,2.81-.79,4.97-2.36,6.48-1.58,1.52-4.23,2.28-7.95,2.28h-14.47v2.19c0,1.23.35,2.24,1.07,3.03.71.79,1.91,1.18,3.6,1.18h18.62v5.94h-18.62c-1.92,0-3.54-.25-4.87-.75-1.33-.5-2.42-1.2-3.29-2.1-.86-.9-1.49-1.96-1.87-3.17-.38-1.21-.58-2.54-.58-4.01v-10.37c0-1.42.19-2.75.58-3.98.38-1.23,1.01-2.3,1.87-3.2.86-.9,1.96-1.6,3.29-2.1,1.33-.5,2.95-.75,4.87-.75h9.86ZM274.67,32.42h14.29c1.65,0,2.81-.33,3.49-.98.67-.65,1.01-1.54,1.01-2.65s-.35-2.07-1.04-2.77-1.79-1.04-3.29-1.04h-9.8c-1.69,0-2.89.4-3.6,1.21-.71.81-1.07,1.81-1.07,3v3.23Z"/>
      <path class="cls-4" d="M314.09,10.64v38.9h-6.8V10.64h6.8Z"/>
      <path class="cls-4" d="M350,10.64v6.8h-11.35v32.1h-6.86V17.44h-11.35v-6.8h29.57Z"/>
    </g>
    <g>
      <path class="cls-8" d="M161.11,68.87v-11.67h4.48c.87,0,1.68.15,2.43.45.76.3,1.41.71,1.96,1.23.55.52.98,1.14,1.3,1.87.32.72.47,1.49.47,2.32s-.16,1.57-.47,2.28c-.32.71-.75,1.33-1.3,1.84-.55.52-1.2.92-1.96,1.23-.76.3-1.57.45-2.43.45h-4.48ZM165.57,59.36h-2.05v7.37h2.05c.51,0,.99-.09,1.44-.28.45-.19.84-.45,1.17-.77s.59-.71.78-1.16c.19-.44.28-.92.28-1.43s-.09-1.01-.28-1.47c-.19-.46-.45-.85-.78-1.18s-.72-.59-1.17-.78c-.45-.19-.93-.28-1.44-.28Z"/>
      <path class="cls-8" d="M173.41,68.87v-11.67h8.97v2.1h-6.55v2.67h4.32v2.03h-4.32v2.77h6.62v2.1h-9.03Z"/>
      <path class="cls-8" d="M184.16,68.87v-11.67h5.7c.59,0,1.13.09,1.62.27.49.18.92.43,1.27.74.36.32.63.7.83,1.14.2.44.3.93.3,1.47,0,.73-.21,1.39-.63,1.97-.42.58-.97,1.01-1.66,1.28l2.58,4.8h-2.7l-2.28-4.47h-2.63v4.47h-2.42ZM189.64,59.29h-3.07v3.13h3.07c.54,0,.98-.14,1.31-.43.33-.29.49-.67.49-1.13s-.16-.84-.49-1.13c-.33-.29-.76-.43-1.31-.43Z"/>
      <path class="cls-8" d="M205.09,68.04l-4.03-7.75v8.58h-2.23v-11.67h3.1l3.2,6.27,3.2-6.27h3.1v11.67h-2.28v-8.57l-4.05,7.73Z"/>
      <path class="cls-8" d="M212.4,68.87l4.8-11.67h2.8l4.73,11.67h-2.62l-1.18-3.07h-4.82l-1.2,3.07h-2.52ZM216.87,63.87h3.33l-1.65-4.3-1.68,4.3Z"/>
      <path class="cls-8" d="M225.72,68.87v-11.67h2.42v5.23l5.1-5.23h2.95l-5.63,5.55,5.9,6.12h-3.23l-5.08-5.47v5.47h-2.42Z"/>
      <path class="cls-8" d="M237.34,68.87v-11.67h8.97v2.1h-6.55v2.67h4.32v2.03h-4.32v2.77h6.62v2.1h-9.03Z"/>
      <path class="cls-8" d="M248.09,68.87v-11.67h5.7c.59,0,1.13.09,1.62.27.49.18.92.43,1.27.74.36.32.63.7.83,1.14.2.44.3.93.3,1.47,0,.73-.21,1.39-.62,1.97-.42.58-.97,1.01-1.66,1.28l2.58,4.8h-2.7l-2.28-4.47h-2.63v4.47h-2.42ZM253.57,59.29h-3.07v3.13h3.07c.54,0,.98-.14,1.31-.43.33-.29.49-.67.49-1.13s-.16-.84-.49-1.13c-.33-.29-.76-.43-1.31-.43Z"/>
      <path class="cls-8" d="M258.54,67.02l1.38-1.73c.68.59,1.33,1.02,1.96,1.29.63.27,1.29.41,1.99.41s1.3-.13,1.73-.4c.43-.27.65-.62.65-1.07,0-.4-.15-.71-.44-.93-.29-.22-.79-.39-1.48-.5l-2.32-.4c-1-.17-1.76-.52-2.27-1.05-.52-.53-.78-1.22-.78-2.07,0-1.09.41-1.95,1.24-2.58.83-.63,1.95-.95,3.36-.95.84,0,1.7.14,2.56.43.86.29,1.61.69,2.26,1.2l-1.3,1.8c-.62-.48-1.23-.83-1.83-1.06-.6-.23-1.22-.34-1.85-.34s-1.16.12-1.55.36c-.39.24-.58.56-.58.96,0,.36.13.63.38.83.26.2.68.34,1.28.43l2.2.37c1.16.19,2.02.56,2.61,1.11.58.55.87,1.27.87,2.17,0,1.13-.45,2.04-1.34,2.72-.89.68-2.09,1.02-3.57,1.02-.93,0-1.85-.18-2.76-.53-.91-.36-1.71-.85-2.41-1.48Z"/>
      <path class="cls-8" d="M270.07,68.87v-11.67h5.85c.57,0,1.09.09,1.57.27.48.18.9.44,1.24.76.34.32.61.71.81,1.16.19.45.29.94.29,1.48s-.1,1-.29,1.44c-.19.44-.47.82-.82,1.14-.35.32-.76.57-1.24.75-.48.18-1,.27-1.57.27h-3.43v4.4h-2.42ZM275.65,59.29h-3.17v3.18h3.17c.52,0,.94-.14,1.26-.43.32-.29.47-.67.47-1.15s-.16-.86-.47-1.16c-.32-.29-.74-.44-1.26-.44Z"/>
      <path class="cls-8" d="M278.5,68.87l4.8-11.67h2.8l4.73,11.67h-2.62l-1.18-3.07h-4.82l-1.2,3.07h-2.52ZM282.97,63.87h3.33l-1.65-4.3-1.68,4.3Z"/>
      <path class="cls-8" d="M297,66.81c.61,0,1.18-.13,1.72-.38.53-.26,1.01-.62,1.42-1.1l1.58,1.57c-.56.66-1.26,1.18-2.12,1.57-.86.39-1.75.58-2.66.58s-1.7-.16-2.46-.47c-.76-.31-1.42-.73-1.98-1.27-.56-.53-.99-1.17-1.31-1.9-.32-.73-.47-1.52-.47-2.37s.16-1.64.48-2.37c.32-.74.76-1.37,1.32-1.91.56-.53,1.21-.96,1.97-1.27.76-.31,1.57-.47,2.44-.47.93,0,1.84.2,2.72.59.88.39,1.59.92,2.13,1.59l-1.63,1.62c-.41-.51-.89-.9-1.45-1.17-.56-.27-1.14-.41-1.77-.41-.52,0-1.01.1-1.47.29-.46.19-.86.46-1.19.8-.33.34-.59.74-.78,1.2-.19.46-.28.96-.28,1.51s.1,1.03.29,1.49c.19.46.46.86.8,1.19.34.33.74.6,1.2.79.46.19.96.29,1.51.29Z"/>
      <path class="cls-8" d="M303.13,68.87v-11.67h8.97v2.1h-6.55v2.67h4.32v2.03h-4.32v2.77h6.62v2.1h-9.03Z"/>
      <path class="cls-8" d="M317.23,68.87v-11.67h9.02v2.1h-6.6v2.75h4.38v2.03h-4.38v4.78h-2.42Z"/>
      <path class="cls-8" d="M338.03,63.82c0,.79-.12,1.51-.37,2.16-.24.65-.59,1.2-1.04,1.65-.45.45-.99.8-1.63,1.04-.64.24-1.35.37-2.12.37s-1.5-.12-2.14-.37c-.64-.24-1.18-.59-1.62-1.04-.44-.45-.79-1-1.03-1.64-.24-.64-.37-1.37-.37-2.17v-6.62h2.42v6.62c0,.9.25,1.62.76,2.17.51.54,1.17.82,2.01.82s1.5-.27,1.99-.82c.49-.54.74-1.27.74-2.17v-6.62h2.42v6.62ZM331.07,55.82c-.34,0-.64-.12-.88-.35-.24-.23-.37-.52-.37-.87s.12-.63.36-.86c.24-.23.54-.34.89-.34s.65.11.89.34c.24.23.36.51.36.86s-.12.63-.37.87c-.24.23-.54.35-.88.35ZM334.72,55.82c-.36,0-.65-.12-.89-.35-.24-.23-.36-.52-.36-.87s.12-.63.35-.86c.23-.23.53-.34.9-.34s.65.11.88.34c.23.23.35.51.35.86s-.12.63-.36.87c-.24.23-.53.35-.87.35Z"/>
      <path class="cls-8" d="M339.97,68.87v-11.67h5.7c.59,0,1.13.09,1.62.27.49.18.92.43,1.27.74.36.32.63.7.83,1.14.2.44.3.93.3,1.47,0,.73-.21,1.39-.63,1.97-.42.58-.97,1.01-1.66,1.28l2.58,4.8h-2.7l-2.28-4.47h-2.63v4.47h-2.42ZM345.45,59.29h-3.07v3.13h3.07c.54,0,.98-.14,1.31-.43.33-.29.49-.67.49-1.13s-.16-.84-.49-1.13c-.33-.29-.76-.43-1.31-.43Z"/>
    </g>
    <g>
      <path class="cls-4" d="M138.19,88.87v-1.65l6.43-7.92h-6.38v-2.1h9.53v1.65l-6.43,7.92h6.5v2.1h-9.65Z"/>
      <path class="cls-4" d="M159.32,83.82c0,.79-.12,1.51-.37,2.16-.24.65-.59,1.2-1.04,1.65-.45.45-.99.8-1.63,1.04-.64.24-1.35.37-2.12.37s-1.5-.12-2.14-.37c-.64-.24-1.18-.59-1.62-1.04-.44-.45-.79-1-1.03-1.64-.24-.64-.37-1.37-.37-2.17v-6.62h2.42v6.62c0,.9.25,1.62.76,2.17.51.54,1.17.82,2.01.82s1.5-.27,1.99-.82c.49-.54.74-1.27.74-2.17v-6.62h2.42v6.62Z"/>
      <path class="cls-4" d="M161.26,88.87v-11.67h2.42v5.23l5.1-5.23h2.95l-5.63,5.55,5.9,6.12h-3.23l-5.08-5.47v5.47h-2.42Z"/>
      <path class="cls-4" d="M182.54,83.82c0,.79-.12,1.51-.37,2.16-.24.65-.59,1.2-1.04,1.65-.45.45-.99.8-1.63,1.04-.64.24-1.35.37-2.12.37s-1.5-.12-2.14-.37c-.64-.24-1.18-.59-1.62-1.04-.44-.45-.79-1-1.03-1.64-.24-.64-.37-1.37-.37-2.17v-6.62h2.42v6.62c0,.9.25,1.62.76,2.17.51.54,1.17.82,2.01.82s1.5-.27,1.99-.82c.49-.54.74-1.27.74-2.17v-6.62h2.42v6.62Z"/>
      <path class="cls-4" d="M184.47,77.21h2.3l5.8,7.55v-7.55h2.27v11.67h-2.13l-5.95-7.8v7.8h-2.28v-11.67Z"/>
      <path class="cls-4" d="M196.95,88.87v-11.67h9.02v2.1h-6.6v2.75h4.38v2.03h-4.38v4.78h-2.42Z"/>
      <path class="cls-4" d="M206.85,79.34v-2.13h10.27v2.13h-3.92v9.53h-2.42v-9.53h-3.93Z"/>
      <path class="cls-4" d="M217.64,87.02l1.38-1.73c.68.59,1.33,1.02,1.96,1.29.63.27,1.29.41,1.99.41s1.3-.13,1.73-.4c.43-.27.65-.62.65-1.07,0-.4-.15-.71-.44-.93-.29-.22-.79-.39-1.48-.5l-2.32-.4c-1-.17-1.76-.52-2.27-1.05-.52-.53-.78-1.22-.78-2.07,0-1.09.41-1.95,1.24-2.58.83-.63,1.95-.95,3.36-.95.84,0,1.7.14,2.56.43.86.29,1.61.69,2.26,1.2l-1.3,1.8c-.62-.48-1.23-.83-1.83-1.06-.6-.23-1.22-.34-1.85-.34s-1.16.12-1.55.36c-.39.24-.58.56-.58.96,0,.36.13.63.38.83.26.2.68.34,1.28.43l2.2.37c1.16.19,2.02.56,2.61,1.11.58.55.87,1.27.87,2.17,0,1.13-.45,2.04-1.34,2.72-.89.68-2.09,1.02-3.58,1.02-.93,0-1.85-.18-2.76-.53-.91-.36-1.71-.85-2.41-1.48Z"/>
      <path class="cls-4" d="M228.09,79.34v-2.13h10.27v2.13h-3.92v9.53h-2.42v-9.53h-3.93Z"/>
      <path class="cls-4" d="M239.7,88.87v-11.67h8.97v2.1h-6.55v2.67h4.32v2.03h-4.32v2.77h6.62v2.1h-9.03Z"/>
      <path class="cls-4" d="M255.6,86.81c.61,0,1.18-.13,1.72-.38.53-.26,1.01-.62,1.42-1.1l1.58,1.57c-.56.66-1.26,1.18-2.12,1.57-.86.39-1.75.58-2.66.58s-1.7-.16-2.46-.47c-.76-.31-1.42-.73-1.97-1.27-.56-.53-.99-1.17-1.31-1.9-.32-.73-.47-1.52-.47-2.37s.16-1.64.48-2.37c.32-.74.76-1.37,1.32-1.91.56-.53,1.21-.96,1.97-1.27.76-.31,1.57-.47,2.44-.47.93,0,1.84.2,2.72.59.88.39,1.59.92,2.13,1.59l-1.63,1.62c-.41-.51-.89-.9-1.45-1.17-.56-.27-1.14-.41-1.77-.41-.52,0-1.01.1-1.47.29-.46.19-.86.46-1.19.8-.33.34-.59.74-.78,1.2-.19.46-.28.96-.28,1.51s.1,1.03.29,1.49c.19.46.46.86.8,1.19.34.33.74.6,1.2.79.46.19.96.29,1.51.29Z"/>
      <path class="cls-4" d="M261.74,88.87v-11.67h2.42v4.68h5.37v-4.68h2.42v11.67h-2.42v-4.77h-5.37v4.77h-2.42Z"/>
      <path class="cls-4" d="M274.05,77.21h2.3l5.8,7.55v-7.55h2.27v11.67h-2.13l-5.95-7.8v7.8h-2.28v-11.67Z"/>
      <path class="cls-4" d="M298.44,83.04c0,.83-.16,1.62-.48,2.36-.32.74-.76,1.38-1.31,1.92-.55.54-1.2.96-1.96,1.27-.76.31-1.57.47-2.43.47s-1.66-.16-2.42-.47c-.76-.31-1.41-.74-1.96-1.27-.55-.54-.99-1.18-1.31-1.92-.32-.74-.48-1.53-.48-2.36s.16-1.62.48-2.36c.32-.74.76-1.38,1.31-1.92.55-.54,1.2-.96,1.96-1.27.76-.31,1.56-.47,2.42-.47s1.68.16,2.43.47c.76.31,1.41.74,1.96,1.27.55.54.99,1.18,1.31,1.92.32.74.48,1.52.48,2.36ZM295.95,83.04c0-.54-.09-1.05-.28-1.51-.19-.46-.45-.86-.77-1.2-.33-.34-.72-.61-1.18-.8-.46-.19-.94-.29-1.47-.29s-1.01.1-1.46.29c-.45.19-.84.46-1.17.8-.33.34-.59.74-.77,1.2-.19.46-.28.96-.28,1.51s.09,1.03.28,1.5c.19.47.45.87.77,1.21.33.34.72.61,1.17.8.45.19.94.29,1.46.29s1.01-.1,1.47-.29c.46-.19.85-.46,1.18-.8.33-.34.59-.74.77-1.21.19-.47.28-.97.28-1.5Z"/>
      <path class="cls-4" d="M300.09,88.87v-11.67h2.42v9.53h6.38v2.13h-8.8Z"/>
      <path class="cls-4" d="M321.53,83.04c0,.83-.16,1.62-.48,2.36-.32.74-.76,1.38-1.31,1.92-.55.54-1.2.96-1.96,1.27-.76.31-1.57.47-2.43.47s-1.66-.16-2.42-.47c-.76-.31-1.41-.74-1.96-1.27-.55-.54-.99-1.18-1.31-1.92-.32-.74-.48-1.53-.48-2.36s.16-1.62.48-2.36c.32-.74.76-1.38,1.31-1.92.55-.54,1.2-.96,1.96-1.27.76-.31,1.56-.47,2.42-.47s1.68.16,2.43.47c.76.31,1.41.74,1.96,1.27.55.54.99,1.18,1.31,1.92.32.74.48,1.52.48,2.36ZM319.05,83.04c0-.54-.09-1.05-.28-1.51-.19-.46-.45-.86-.77-1.2-.33-.34-.72-.61-1.18-.8-.46-.19-.94-.29-1.47-.29s-1.01.1-1.46.29c-.45.19-.84.46-1.17.8-.33.34-.59.74-.77,1.2-.19.46-.28.96-.28,1.51s.09,1.03.28,1.5c.19.47.45.87.77,1.21.33.34.72.61,1.17.8.45.19.94.29,1.46.29s1.01-.1,1.47-.29c.46-.19.85-.46,1.18-.8.33-.34.59-.74.77-1.21.19-.47.28-.97.28-1.5Z"/>
      <path class="cls-4" d="M334.78,83.06c0,.86-.15,1.65-.44,2.39-.29.74-.7,1.37-1.22,1.9-.52.53-1.14.94-1.86,1.25-.72.31-1.5.46-2.33.46s-1.68-.16-2.43-.47c-.76-.31-1.41-.74-1.96-1.27-.55-.54-.99-1.18-1.31-1.91-.32-.73-.48-1.52-.48-2.37s.16-1.63.47-2.37c.32-.73.75-1.37,1.3-1.91.55-.54,1.2-.96,1.96-1.27.76-.31,1.56-.47,2.42-.47.97,0,1.88.19,2.73.58.86.39,1.56.92,2.12,1.6l-1.68,1.55c-.41-.49-.89-.86-1.43-1.12-.54-.26-1.12-.39-1.74-.39-.52,0-1.01.1-1.46.29-.45.19-.84.46-1.17.8-.33.34-.58.74-.77,1.2-.18.46-.27.96-.27,1.51s.09,1.05.28,1.52c.19.47.45.87.78,1.21.33.34.73.61,1.19.8.46.19.95.29,1.47.29.82,0,1.53-.23,2.12-.68.59-.46.96-1.04,1.11-1.75h-3.45v-2.1h6.03v.73Z"/>
      <path class="cls-4" d="M336.43,88.87v-11.67h2.42v11.67h-2.42Z"/>
      <path class="cls-4" d="M340.97,88.87v-11.67h8.97v2.1h-6.55v2.67h4.32v2.03h-4.32v2.77h6.62v2.1h-9.03Z"/>
    </g>
  </g>
</svg>